<svg id="visual" viewBox="0 0 900 600" width="900" height="600" xmlns="http://www.w3.org/2000/svg" xmlns:xlink="http://www.w3.org/1999/xlink" version="1.1"><rect width="900" height="600" fill="#393E46"></rect><g><g transform="translate(25 273)"><path d="M97 -38.5C105.1 -6.6 76.9 30.2 46.3 48.9C15.8 67.6 -17.1 68.2 -39.6 52.3C-62.2 36.5 -74.4 4.2 -66.1 -28.1C-57.8 -60.4 -28.9 -92.6 7.8 -95.1C44.4 -97.7 88.9 -70.5 97 -38.5Z" stroke="#222831" fill="none" stroke-width="20"></path></g><g transform="translate(458 118)"><path d="M117.6 -38.6C132.1 6.3 109.4 62.8 70.7 89C31.9 115.2 -22.9 111.1 -59.9 83.9C-96.9 56.6 -116.2 6.3 -103.2 -36.5C-90.3 -79.3 -45.1 -114.6 3.2 -115.7C51.6 -116.7 103.2 -83.5 117.6 -38.6Z" stroke="#222831" fill="none" stroke-width="20"></path></g><g transform="translate(414 576)"><path d="M75.1 -22.9C87.7 14.4 81.7 59.3 56.1 78.1C30.6 96.9 -14.6 89.6 -41.9 67.4C-69.3 45.3 -78.8 8.3 -68.9 -25.4C-58.9 -59 -29.5 -89.4 0.9 -89.7C31.2 -89.9 62.5 -60.2 75.1 -22.9Z" stroke="#222831" fill="none" stroke-width="20"></path></g><g transform="translate(847 389)"><path d="M82.9 -22.3C95.5 11.6 85.3 57.5 59 75.2C32.6 92.9 -9.8 82.4 -42 58.8C-74.2 35.2 -96 -1.5 -87.3 -30.2C-78.6 -58.9 -39.3 -79.6 -2 -78.9C35.2 -78.2 70.4 -56.3 82.9 -22.3Z" stroke="#222831" fill="none" stroke-width="20"></path></g><g transform="translate(841 2)"><path d="M107.2 -39.9C117.6 -2.8 90 41.6 56.1 62.9C22.1 84.2 -18.2 82.4 -46.7 62.2C-75.1 42.1 -91.5 3.5 -81.8 -32.7C-72 -68.9 -36 -102.7 6.2 -104.7C48.4 -106.7 96.8 -76.9 107.2 -39.9Z" stroke="#222831" fill="none" stroke-width="20"></path></g></g></svg>