<svg id="visual" viewBox="0 0 900 600" width="900" height="600" xmlns="http://www.w3.org/2000/svg" xmlns:xlink="http://www.w3.org/1999/xlink" version="1.1"><path d="M0 43L100 85L200 49L300 97L400 97L500 61L600 61L700 49L800 109L900 61L900 0L800 0L700 0L600 0L500 0L400 0L300 0L200 0L100 0L0 0Z" fill="#222831"></path><path d="M0 181L100 193L200 199L300 145L400 199L500 121L600 109L700 181L800 199L900 97L900 59L800 107L700 47L600 59L500 59L400 95L300 95L200 47L100 83L0 41Z" fill="#2d333b"></path><path d="M0 265L100 253L200 289L300 199L400 277L500 199L600 151L700 217L800 229L900 187L900 95L800 197L700 179L600 107L500 119L400 197L300 143L200 197L100 191L0 179Z" fill="#393e46"></path><path d="M0 409L100 319L200 439L300 439L400 391L500 337L600 319L700 295L800 349L900 355L900 185L800 227L700 215L600 149L500 197L400 275L300 197L200 287L100 251L0 263Z" fill="#393e46"></path><path d="M0 535L100 523L200 571L300 517L400 511L500 541L600 517L700 559L800 493L900 553L900 353L800 347L700 293L600 317L500 335L400 389L300 437L200 437L100 317L0 407Z" fill="#2d333b"></path><path d="M0 601L100 601L200 601L300 601L400 601L500 601L600 601L700 601L800 601L900 601L900 551L800 491L700 557L600 515L500 539L400 509L300 515L200 569L100 521L0 533Z" fill="#222831"></path></svg>